# xmcd
#
# Track frame offsets:
# 150
# 11151
# 21537
# 37387
# 49895
# 66018
# 78865
# 91493
# 105059
# 125269
# 140398
# 154948
# 167337
# 177903
# 190871
# 206398
# 215989
# 226818
# 243029
# 260241
# 274869
# 289891
# 318159
#
# Disc length: 4495 seconds
#
#
# Revision: 0
# Processed by: cddbd v1.5.1PL0 Copyright (c) Steve Scherf et al.
# Submitted via: FreeRIP 2.931 
#
DISCID=47118d17
DTITLE=Aretha Frankli - Respect (The Very Best Of Aretha Franklin) Disc 1
DYEAR=1900
DGENRE=Blues
TTITLE0=Respect
TTITLE1=Think
TTITLE2=Spanish Harlem
TTITLE3=Natural Woman
TTITLE4=I Say A Little Prayer
TTITLE5=Son Of A Preacher Man
TTITLE6=I Never Loved A Man (The Way I Love You)
TTITLE7=Chain Of Fools
TTITLE8=Don't Play That Song (You Lied)
TTITLE9=Angel
TTITLE10=Border Song (Holy Moses)
TTITLE11=Rock Steady
TTITLE12=See Saw
TTITLE13=House That Jack Build
TTITLE14=Oh No Not My Baby
TTITLE15=Until You Come Back To Me
TTITLE16=Good Times
TTITLE17=Since You've Been Gone
TTITLE18=You're All I Nedd To Get By
TTITLE19=Ain't Nothing Like The Real Thing
TTITLE20=Do Right Woman, Do Right Man
TTITLE21=Share Your Love With Me
TTITLE22=Something He Can Feel
EXTD=
EXTT0=
EXTT1=
EXTT2=
EXTT3=
EXTT4=
EXTT5=
EXTT6=
EXTT7=
EXTT8=
EXTT9=
EXTT10=
EXTT11=
EXTT12=
EXTT13=
EXTT14=
EXTT15=
EXTT16=
EXTT17=
EXTT18=
EXTT19=
EXTT20=
EXTT21=
EXTT22=
PLAYORDER=
